<svg width="53" height="43" viewBox="0 0 53 43" fill="none" xmlns="http://www.w3.org/2000/svg">
<rect x="12" y="17" width="29" height="26" fill="#41B883"/>
<path fill-rule="evenodd" clip-rule="evenodd" d="M26.2778 0C25.2261 4.62716e-05 24.2038 0.347111 23.3694 0.987371C22.535 1.62763 21.9352 2.52531 21.663 3.54118C21.3908 4.55706 21.4614 5.63437 21.8638 6.60603C22.2663 7.5777 22.9781 8.38943 23.8889 8.91533V11.9444H16.7222C9.07778 11.9444 7.16667 18.3156 7.16667 21.5V38.2222C7.16667 39.8156 8.12222 43 11.9444 43H14.3333V33.4444C14.3333 32.8109 14.585 32.2032 15.033 31.7552C15.481 31.3072 16.0887 31.0556 16.7222 31.0556H35.8333C36.4669 31.0556 37.0745 31.3072 37.5225 31.7552C37.9705 32.2032 38.2222 32.8109 38.2222 33.4444V43H40.6111C44.4333 43 45.3889 39.8156 45.3889 38.2222V21.5C45.3889 13.8556 39.0177 11.9444 35.8333 11.9444H28.6667V8.91533C29.5775 8.38943 30.2893 7.5777 30.6917 6.60603C31.0942 5.63437 31.1648 4.55706 30.8925 3.54118C30.6203 2.52531 30.0205 1.62763 29.1862 0.987371C28.3518 0.347111 27.3295 4.62716e-05 26.2778 0ZM33.4444 43V35.8333H28.6667V43H33.4444ZM23.8889 43V35.8333H19.1111V43H23.8889ZM47.7778 35.8333V23.8889C49.3712 23.8889 52.5556 24.8444 52.5556 28.6667V31.0556C52.5556 32.6489 51.6 35.8333 47.7778 35.8333ZM4.77778 23.8889V35.8333C0.955556 35.8333 0 32.6489 0 31.0556V28.6667C0 24.8444 3.18439 23.8889 4.77778 23.8889ZM19.1111 21.5C18.4775 21.5 17.8699 21.7517 17.4219 22.1997C16.9739 22.6477 16.7222 23.2553 16.7222 23.8889C16.7222 24.5225 16.9739 25.1301 17.4219 25.5781C17.8699 26.0261 18.4775 26.2778 19.1111 26.2778H19.1135C19.7471 26.2778 20.3547 26.0261 20.8027 25.5781C21.2507 25.1301 21.5024 24.5225 21.5024 23.8889C21.5024 23.2553 21.2507 22.6477 20.8027 22.1997C20.3547 21.7517 19.7471 21.5 19.1135 21.5H19.1111ZM31.0556 23.8889C31.0556 23.2553 31.3072 22.6477 31.7552 22.1997C32.2033 21.7517 32.8109 21.5 33.4444 21.5H33.4468C34.0804 21.5 34.688 21.7517 35.136 22.1997C35.584 22.6477 35.8357 23.2553 35.8357 23.8889C35.8357 24.5225 35.584 25.1301 35.136 25.5781C34.688 26.0261 34.0804 26.2778 33.4468 26.2778H33.4444C32.8109 26.2778 32.2033 26.0261 31.7552 25.5781C31.3072 25.1301 31.0556 24.5225 31.0556 23.8889Z" fill="#34495E"/>
</svg>
